<svg width="109" height="40" viewBox="0 0 109 40" fill="none" xmlns="http://www.w3.org/2000/svg">
<g clip-path="url(#clip0_175_95)">
<g clip-path="url(#clip1_175_95)">
<g clip-path="url(#clip2_175_95)">
<path d="M38.3041 28.1828L19.8611 39.4776L1.41809 28.1828L19.8611 16.9243L38.3041 28.1828Z" fill="#272926" stroke="#272926"/>
<path d="M20.3529 38.1087L5.01697 28.7451L20.3529 19.3866L35.6888 28.7451L20.3529 38.1087Z" fill="black" stroke="#272926"/>
<path d="M4.64502 9.8809L20.1164 0.433084V18.9539L19.7907 19.1538L4.64502 9.8809Z" fill="#007200" stroke="#272926"/>
<path d="M20.9195 19.1541L20.5892 18.9533V0.433085L36.0607 9.8809L20.9195 19.1541Z" fill="#007200" stroke="#272926"/>
<path d="M20.1164 37.9644L4.40918 28.3778V10.3142L20.1164 19.9318V37.9644Z" fill="#007200" stroke="#272926"/>
<path d="M36.2965 10.3142V28.3777L20.5892 37.9644V19.9317L36.2965 10.3142Z" fill="#007200" stroke="#272926"/>
<path d="M20.3528 19.7876L20.7241 37.6863L34.2746 29.8964L20.3528 38.3973V19.7876Z" fill="#007200"/>
<mask id="mask0_175_95" style="mask-type:luminance" maskUnits="userSpaceOnUse" x="20" y="19" width="15" height="20">
<path d="M20.3528 19.7876L20.7241 37.6863L34.2746 29.8964L20.3528 38.3973V19.7876Z" fill="white"/>
</mask>
<g mask="url(#mask0_175_95)">
<path d="M20.3528 19.7876L20.8256 19.7766L19.8799 19.7876H20.3528ZM20.7241 37.6863L20.2514 37.6973L20.2684 38.5174L20.95 38.1256L20.7241 37.6863ZM34.2746 29.8964L34.511 30.3294L34.0487 29.4572L34.2746 29.8964ZM20.3528 38.3974H19.8799V39.2635L20.5893 38.8304L20.3528 38.3974ZM19.88 19.7986L20.2514 37.6973L21.1969 37.6753L20.8256 19.7766L19.88 19.7986ZM20.95 38.1256L34.5004 30.3357L34.0487 29.4572L20.4983 37.247L20.95 38.1256ZM34.0381 29.4635L20.1163 37.9644L20.5893 38.8304L34.511 30.3294L34.0381 29.4635ZM20.8256 38.3974V19.7876H19.8799V38.3974H20.8256Z" fill="#272926"/>
</g>
<path d="M36.0608 9.8809L20.3529 19.4989L4.64502 9.8809L20.3529 0.288699L36.0608 9.8809Z" fill="#007200" stroke="#272926"/>
<path d="M17.304 17.6319L20.2409 19.3021L20.3529 19.3658L20.4649 19.3021L23.4019 17.6319L20.3529 19.4988L17.304 17.6319Z" fill="#272926" stroke="#272926"/>
<path d="M5.20173 29.5L3.44828 27.6225C2.22027 26.3077 1.40482 24.625 1.11267 22.8032L0.958403 21.8411C0.773581 20.6886 0.736639 19.5149 0.848571 18.3519L0.994233 16.8384C1.19121 14.7918 2.1263 12.9041 3.60526 11.5674L4.78772 10.4986" stroke="#272926" stroke-width="2" stroke-linejoin="round"/>
<path d="M20.276 38.0442L18.5922 36.2649C17.3465 34.9485 16.5176 33.2558 16.2199 31.4204L16.0926 30.6353C15.9032 29.4679 15.8656 28.2787 15.9809 27.1006L16.1094 25.7869C16.3108 23.7273 17.2596 21.8306 18.7562 20.4954L19.872 19.5" stroke="#272926" stroke-width="2" stroke-linejoin="round"/>
<path d="M36.1756 10.75C36.4368 10.75 36.6485 10.5261 36.6485 10.25C36.6485 9.97381 36.4368 9.74995 36.1756 9.74995C35.9145 9.74995 35.7028 9.97381 35.7028 10.25C35.7028 10.5261 35.9145 10.75 36.1756 10.75Z" fill="#007200" stroke="#272926"/>
<path d="M36.9237 9.9375L36.5078 9.4977L38.4664 7.3729L39.3307 8.4673L36.9237 9.9375Z" fill="#007200" stroke="#272926"/>
</g>
</g>
<path d="M50.215 26.5C49.8017 26.5 49.4817 26.3867 49.255 26.16C49.0283 25.92 48.915 25.5933 48.915 25.18V13.64C48.915 13.2133 49.0217 12.8933 49.235 12.68C49.4617 12.4533 49.7817 12.34 50.195 12.34C50.6083 12.34 50.9217 12.4533 51.135 12.68C51.3617 12.8933 51.475 13.2133 51.475 13.64V24.32H57.275C57.635 24.32 57.9083 24.4133 58.095 24.6C58.295 24.7867 58.395 25.0533 58.395 25.4C58.395 25.7467 58.295 26.02 58.095 26.22C57.9083 26.4067 57.635 26.5 57.275 26.5H50.215ZM62.7455 26.7C61.6388 26.7 60.8055 26.3867 60.2455 25.76C59.6855 25.12 59.4055 24.1867 59.4055 22.96V13.5C59.4055 13.0867 59.5121 12.7733 59.7255 12.56C59.9388 12.3467 60.2455 12.24 60.6455 12.24C61.0455 12.24 61.3521 12.3467 61.5655 12.56C61.7921 12.7733 61.9055 13.0867 61.9055 13.5V22.84C61.9055 23.4533 62.0321 23.9067 62.2855 24.2C62.5521 24.4933 62.9255 24.64 63.4055 24.64C63.5121 24.64 63.6121 24.64 63.7055 24.64C63.7988 24.6267 63.8921 24.6133 63.9855 24.6C64.1721 24.5733 64.2988 24.6267 64.3655 24.76C64.4321 24.88 64.4655 25.1333 64.4655 25.52C64.4655 25.8533 64.3988 26.1133 64.2655 26.3C64.1321 26.4867 63.9121 26.6 63.6055 26.64C63.4721 26.6533 63.3321 26.6667 63.1855 26.68C63.0388 26.6933 62.8921 26.7 62.7455 26.7ZM70.0145 26.7C68.9079 26.7 67.9545 26.4933 67.1545 26.08C66.3545 25.6667 65.7345 25.08 65.2945 24.32C64.8679 23.56 64.6545 22.66 64.6545 21.62C64.6545 20.6067 64.8612 19.72 65.2745 18.96C65.7012 18.2 66.2812 17.6067 67.0145 17.18C67.7612 16.74 68.6079 16.52 69.5545 16.52C70.2479 16.52 70.8679 16.6333 71.4145 16.86C71.9745 17.0867 72.4479 17.4133 72.8345 17.84C73.2345 18.2667 73.5345 18.7867 73.7345 19.4C73.9479 20 74.0545 20.68 74.0545 21.44C74.0545 21.68 73.9679 21.8667 73.7945 22C73.6345 22.12 73.4012 22.18 73.0945 22.18H66.6745V20.74H72.2945L71.9745 21.04C71.9745 20.4267 71.8812 19.9133 71.6945 19.5C71.5212 19.0867 71.2612 18.7733 70.9145 18.56C70.5812 18.3333 70.1612 18.22 69.6545 18.22C69.0945 18.22 68.6145 18.3533 68.2145 18.62C67.8279 18.8733 67.5279 19.24 67.3145 19.72C67.1145 20.1867 67.0145 20.7467 67.0145 21.4V21.54C67.0145 22.6333 67.2679 23.4533 67.7745 24C68.2945 24.5333 69.0545 24.8 70.0545 24.8C70.4012 24.8 70.7879 24.76 71.2145 24.68C71.6545 24.5867 72.0679 24.4333 72.4545 24.22C72.7345 24.06 72.9812 23.9933 73.1945 24.02C73.4079 24.0333 73.5745 24.1067 73.6945 24.24C73.8279 24.3733 73.9079 24.54 73.9345 24.74C73.9612 24.9267 73.9212 25.12 73.8145 25.32C73.7212 25.52 73.5545 25.6933 73.3145 25.84C72.8479 26.1333 72.3079 26.3533 71.6945 26.5C71.0945 26.6333 70.5345 26.7 70.0145 26.7ZM82.5544 26.7C80.9944 26.7 79.6744 26.4067 78.5944 25.82C77.5277 25.2333 76.7144 24.4 76.1544 23.32C75.5944 22.24 75.3144 20.96 75.3144 19.48C75.3144 18.36 75.4744 17.3533 75.7944 16.46C76.1277 15.5667 76.601 14.8067 77.2144 14.18C77.841 13.54 78.601 13.0533 79.4944 12.72C80.3877 12.3733 81.401 12.2 82.5344 12.2C83.281 12.2 84.0277 12.2933 84.7744 12.48C85.5344 12.6533 86.2477 12.9533 86.9144 13.38C87.141 13.5267 87.2877 13.7067 87.3544 13.92C87.4344 14.1333 87.4477 14.3533 87.3944 14.58C87.341 14.7933 87.241 14.98 87.0944 15.14C86.9477 15.3 86.761 15.4 86.5344 15.44C86.321 15.48 86.081 15.4267 85.8144 15.28C85.3077 14.9867 84.7944 14.7733 84.2744 14.64C83.7544 14.5067 83.1744 14.44 82.5344 14.44C81.5477 14.44 80.7144 14.64 80.0344 15.04C79.3544 15.4267 78.841 15.9933 78.4944 16.74C78.161 17.4867 77.9944 18.4 77.9944 19.48C77.9944 21.12 78.3877 22.3667 79.1744 23.22C79.961 24.0733 81.1277 24.5 82.6744 24.5C83.2077 24.5 83.7477 24.4467 84.2944 24.34C84.841 24.2333 85.3744 24.0867 85.8944 23.9L85.3944 25.04V20.78H83.1944C82.861 20.78 82.601 20.6933 82.4144 20.52C82.241 20.3467 82.1544 20.1133 82.1544 19.82C82.1544 19.5133 82.241 19.28 82.4144 19.12C82.601 18.96 82.861 18.88 83.1944 18.88H86.4944C86.8277 18.88 87.081 18.9733 87.2544 19.16C87.441 19.3333 87.5344 19.5867 87.5344 19.92V24.78C87.5344 25.0733 87.4744 25.32 87.3544 25.52C87.2477 25.72 87.0677 25.8667 86.8144 25.96C86.2277 26.1733 85.5544 26.3533 84.7944 26.5C84.0344 26.6333 83.2877 26.7 82.5544 26.7ZM96.3209 26.7C94.9609 26.7 93.7676 26.4 92.7409 25.8C91.7276 25.2 90.9409 24.36 90.3809 23.28C89.8209 22.1867 89.5409 20.9067 89.5409 19.44C89.5409 18.3333 89.7009 17.34 90.0209 16.46C90.3409 15.5667 90.7943 14.8067 91.3809 14.18C91.9809 13.54 92.6943 13.0533 93.5209 12.72C94.3609 12.3733 95.2943 12.2 96.3209 12.2C97.6943 12.2 98.8876 12.5 99.9009 13.1C100.914 13.6867 101.701 14.52 102.261 15.6C102.821 16.68 103.101 17.9533 103.101 19.42C103.101 20.5267 102.941 21.5267 102.621 22.42C102.301 23.3133 101.841 24.08 101.241 24.72C100.654 25.36 99.9409 25.8533 99.1009 26.2C98.2743 26.5333 97.3476 26.7 96.3209 26.7ZM96.3209 24.5C97.1876 24.5 97.9209 24.3 98.5209 23.9C99.1343 23.5 99.6009 22.92 99.9209 22.16C100.254 21.4 100.421 20.4933 100.421 19.44C100.421 17.84 100.061 16.6 99.3409 15.72C98.6343 14.84 97.6276 14.4 96.3209 14.4C95.4676 14.4 94.7343 14.6 94.1209 15C93.5076 15.3867 93.0343 15.96 92.7009 16.72C92.3809 17.4667 92.2209 18.3733 92.2209 19.44C92.2209 21.0267 92.5809 22.2667 93.3009 23.16C94.0209 24.0533 95.0276 24.5 96.3209 24.5ZM106.164 22.44C105.911 22.44 105.711 22.36 105.564 22.2C105.431 22.04 105.351 21.8133 105.324 21.52L104.724 13.88C104.684 13.3867 104.791 12.9933 105.044 12.7C105.297 12.3933 105.671 12.24 106.164 12.24C106.644 12.24 107.004 12.3933 107.244 12.7C107.497 12.9933 107.604 13.3867 107.564 13.88L106.964 21.52C106.951 21.8133 106.871 22.04 106.724 22.2C106.591 22.36 106.404 22.44 106.164 22.44ZM106.164 26.6C105.711 26.6 105.344 26.46 105.064 26.18C104.797 25.9 104.664 25.54 104.664 25.1C104.664 24.6733 104.797 24.3267 105.064 24.06C105.344 23.78 105.711 23.64 106.164 23.64C106.631 23.64 106.991 23.78 107.244 24.06C107.511 24.3267 107.644 24.6733 107.644 25.1C107.644 25.54 107.511 25.9 107.244 26.18C106.991 26.46 106.631 26.6 106.164 26.6Z" fill="black"/>
</g>
<defs>
<clipPath id="clip0_175_95">
<rect width="109" height="40" fill="white"/>
</clipPath>
<clipPath id="clip1_175_95">
<rect width="42" height="40" rx="20" fill="white"/>
</clipPath>
<clipPath id="clip2_175_95">
<rect width="119.167" height="40" fill="white"/>
</clipPath>
</defs>
</svg>
