<svg width="160" height="40" viewBox="0 0 160 40" fill="none" xmlns="http://www.w3.org/2000/svg">
<g clip-path="url(#clip0_25_214)">
<g clip-path="url(#clip1_25_214)">
<g clip-path="url(#clip2_25_214)">
<path d="M38.304 28.1828L19.861 39.4776L1.41797 28.1828L19.861 16.9243L38.304 28.1828Z" fill="#272926" stroke="#272926"/>
<path d="M20.353 38.1088L5.01709 28.7451L20.353 19.3866L35.6889 28.7451L20.353 38.1088Z" fill="black" stroke="#272926"/>
<path d="M4.64502 9.88091L20.1164 0.43309V18.954L19.7907 19.1539L4.64502 9.88091Z" fill="#007200" stroke="#272926"/>
<path d="M20.9196 19.1542L20.5894 18.9533V0.43309L36.0608 9.8809L20.9196 19.1542Z" fill="#007200" stroke="#272926"/>
<path d="M20.1164 37.9644L4.40918 28.3778V10.3142L20.1164 19.9318V37.9644Z" fill="#007200" stroke="#272926"/>
<path d="M36.2967 10.3142V28.3777L20.5894 37.9644V19.9318L36.2967 10.3142Z" fill="#007200" stroke="#272926"/>
<path d="M20.3528 19.7877L20.7241 37.6863L34.2746 29.8964L20.3528 38.3974V19.7877Z" fill="#007200"/>
<mask id="mask0_25_214" style="mask-type:luminance" maskUnits="userSpaceOnUse" x="20" y="19" width="15" height="20">
<path d="M20.3528 19.7877L20.7241 37.6863L34.2746 29.8964L20.3528 38.3974V19.7877Z" fill="white"/>
</mask>
<g mask="url(#mask0_25_214)">
<path d="M20.3528 19.7877L20.8256 19.7767L19.8799 19.7877H20.3528ZM20.7241 37.6863L20.2514 37.6973L20.2684 38.5174L20.95 38.1256L20.7241 37.6863ZM34.2746 29.8964L34.511 30.3294L34.0487 29.4572L34.2746 29.8964ZM20.3528 38.3974H19.8799V39.2635L20.5893 38.8304L20.3528 38.3974ZM19.88 19.7986L20.2514 37.6973L21.1969 37.6753L20.8256 19.7767L19.88 19.7986ZM20.95 38.1256L34.5004 30.3357L34.0487 29.4572L20.4983 37.247L20.95 38.1256ZM34.0381 29.4635L20.1163 37.9644L20.5893 38.8304L34.511 30.3294L34.0381 29.4635ZM20.8256 38.3974V19.7877H19.8799V38.3974H20.8256Z" fill="#272926"/>
</g>
<path d="M36.0608 9.8809L20.3529 19.4989L4.64502 9.8809L20.3529 0.288696L36.0608 9.8809Z" fill="#007200" stroke="#272926"/>
<path d="M17.304 17.6319L20.2409 19.3021L20.3529 19.3658L20.4649 19.3021L23.4019 17.6319L20.3529 19.4988L17.304 17.6319Z" fill="#272926" stroke="#272926"/>
<path d="M5.20173 29.5L3.44828 27.6226C2.22027 26.3077 1.40482 24.6251 1.11267 22.8032L0.958403 21.8412C0.773581 20.6886 0.736639 19.5149 0.848571 18.3519L0.994233 16.8385C1.19121 14.7918 2.1263 12.9041 3.60526 11.5674L4.78772 10.4986" stroke="#272926" stroke-width="2" stroke-linejoin="round"/>
<path d="M20.2759 38.0442L18.5921 36.2649C17.3464 34.9485 16.5175 33.2558 16.2198 31.4204L16.0925 30.6353C15.9031 29.4679 15.8655 28.2787 15.9808 27.1006L16.1092 25.7869C16.3107 23.7273 17.2594 21.8306 18.7561 20.4954L19.8718 19.5" stroke="#272926" stroke-width="2" stroke-linejoin="round"/>
<path d="M36.1755 10.7499C36.4367 10.7499 36.6484 10.5261 36.6484 10.2499C36.6484 9.9738 36.4367 9.74994 36.1755 9.74994C35.9144 9.74994 35.7026 9.9738 35.7026 10.2499C35.7026 10.5261 35.9144 10.7499 36.1755 10.7499Z" fill="#007200" stroke="#272926"/>
<path d="M36.9237 9.93749L36.5078 9.49769L38.4664 7.37289L39.3307 8.46729L36.9237 9.93749Z" fill="#007200" stroke="#272926"/>
</g>
</g>
<path d="M50.3341 26.5C49.9208 26.5 49.6008 26.3867 49.3741 26.16C49.1475 25.92 49.0341 25.5933 49.0341 25.18V13.64C49.0341 13.2133 49.1408 12.8933 49.3541 12.68C49.5808 12.4533 49.9008 12.34 50.3141 12.34C50.7275 12.34 51.0408 12.4533 51.2541 12.68C51.4808 12.8933 51.5941 13.2133 51.5941 13.64V24.32H57.3941C57.7541 24.32 58.0275 24.4133 58.2141 24.6C58.4141 24.7867 58.5141 25.0533 58.5141 25.4C58.5141 25.7467 58.4141 26.02 58.2141 26.22C58.0275 26.4067 57.7541 26.5 57.3941 26.5H50.3341ZM62.8646 26.7C61.7579 26.7 60.9246 26.3867 60.3646 25.76C59.8046 25.12 59.5246 24.1867 59.5246 22.96V13.5C59.5246 13.0867 59.6313 12.7733 59.8446 12.56C60.0579 12.3467 60.3646 12.24 60.7646 12.24C61.1646 12.24 61.4713 12.3467 61.6846 12.56C61.9113 12.7733 62.0246 13.0867 62.0246 13.5V22.84C62.0246 23.4533 62.1513 23.9067 62.4046 24.2C62.6713 24.4933 63.0446 24.64 63.5246 24.64C63.6313 24.64 63.7313 24.64 63.8246 24.64C63.9179 24.6267 64.0113 24.6133 64.1046 24.6C64.2913 24.5733 64.4179 24.6267 64.4846 24.76C64.5513 24.88 64.5846 25.1333 64.5846 25.52C64.5846 25.8533 64.5179 26.1133 64.3846 26.3C64.2513 26.4867 64.0313 26.6 63.7246 26.64C63.5913 26.6533 63.4513 26.6667 63.3046 26.68C63.1579 26.6933 63.0113 26.7 62.8646 26.7ZM70.1337 26.7C69.027 26.7 68.0737 26.4933 67.2737 26.08C66.4737 25.6667 65.8537 25.08 65.4137 24.32C64.987 23.56 64.7737 22.66 64.7737 21.62C64.7737 20.6067 64.9803 19.72 65.3937 18.96C65.8203 18.2 66.4003 17.6067 67.1337 17.18C67.8803 16.74 68.727 16.52 69.6737 16.52C70.367 16.52 70.987 16.6333 71.5337 16.86C72.0937 17.0867 72.567 17.4133 72.9537 17.84C73.3537 18.2667 73.6537 18.7867 73.8537 19.4C74.067 20 74.1737 20.68 74.1737 21.44C74.1737 21.68 74.087 21.8667 73.9137 22C73.7537 22.12 73.5203 22.18 73.2137 22.18H66.7937V20.74H72.4137L72.0937 21.04C72.0937 20.4267 72.0003 19.9133 71.8137 19.5C71.6403 19.0867 71.3803 18.7733 71.0337 18.56C70.7003 18.3333 70.2803 18.22 69.7737 18.22C69.2137 18.22 68.7337 18.3533 68.3337 18.62C67.947 18.8733 67.647 19.24 67.4337 19.72C67.2337 20.1867 67.1337 20.7467 67.1337 21.4V21.54C67.1337 22.6333 67.387 23.4533 67.8937 24C68.4137 24.5333 69.1737 24.8 70.1737 24.8C70.5203 24.8 70.907 24.76 71.3337 24.68C71.7737 24.5867 72.187 24.4333 72.5737 24.22C72.8537 24.06 73.1003 23.9933 73.3137 24.02C73.527 24.0333 73.6937 24.1067 73.8137 24.24C73.947 24.3733 74.027 24.54 74.0537 24.74C74.0803 24.9267 74.0403 25.12 73.9337 25.32C73.8403 25.52 73.6737 25.6933 73.4337 25.84C72.967 26.1333 72.427 26.3533 71.8137 26.5C71.2137 26.6333 70.6537 26.7 70.1337 26.7ZM82.6735 26.7C81.1135 26.7 79.7935 26.4067 78.7135 25.82C77.6468 25.2333 76.8335 24.4 76.2735 23.32C75.7135 22.24 75.4335 20.96 75.4335 19.48C75.4335 18.36 75.5935 17.3533 75.9135 16.46C76.2468 15.5667 76.7202 14.8067 77.3335 14.18C77.9602 13.54 78.7202 13.0533 79.6135 12.72C80.5068 12.3733 81.5202 12.2 82.6535 12.2C83.4002 12.2 84.1468 12.2933 84.8935 12.48C85.6535 12.6533 86.3668 12.9533 87.0335 13.38C87.2602 13.5267 87.4068 13.7067 87.4735 13.92C87.5535 14.1333 87.5669 14.3533 87.5135 14.58C87.4602 14.7933 87.3602 14.98 87.2135 15.14C87.0668 15.3 86.8802 15.4 86.6535 15.44C86.4402 15.48 86.2002 15.4267 85.9335 15.28C85.4268 14.9867 84.9135 14.7733 84.3935 14.64C83.8735 14.5067 83.2935 14.44 82.6535 14.44C81.6668 14.44 80.8335 14.64 80.1535 15.04C79.4735 15.4267 78.9602 15.9933 78.6135 16.74C78.2802 17.4867 78.1135 18.4 78.1135 19.48C78.1135 21.12 78.5068 22.3667 79.2935 23.22C80.0802 24.0733 81.2468 24.5 82.7935 24.5C83.3268 24.5 83.8668 24.4467 84.4135 24.34C84.9602 24.2333 85.4935 24.0867 86.0135 23.9L85.5135 25.04V20.78H83.3135C82.9802 20.78 82.7202 20.6933 82.5335 20.52C82.3602 20.3467 82.2735 20.1133 82.2735 19.82C82.2735 19.5133 82.3602 19.28 82.5335 19.12C82.7202 18.96 82.9802 18.88 83.3135 18.88H86.6135C86.9468 18.88 87.2002 18.9733 87.3735 19.16C87.5602 19.3333 87.6535 19.5867 87.6535 19.92V24.78C87.6535 25.0733 87.5935 25.32 87.4735 25.52C87.3668 25.72 87.1868 25.8667 86.9335 25.96C86.3468 26.1733 85.6735 26.3533 84.9135 26.5C84.1535 26.6333 83.4068 26.7 82.6735 26.7ZM96.4401 26.7C95.0801 26.7 93.8867 26.4 92.8601 25.8C91.8467 25.2 91.0601 24.36 90.5001 23.28C89.9401 22.1867 89.6601 20.9067 89.6601 19.44C89.6601 18.3333 89.8201 17.34 90.1401 16.46C90.4601 15.5667 90.9134 14.8067 91.5001 14.18C92.1001 13.54 92.8134 13.0533 93.6401 12.72C94.4801 12.3733 95.4134 12.2 96.4401 12.2C97.8134 12.2 99.0067 12.5 100.02 13.1C101.033 13.6867 101.82 14.52 102.38 15.6C102.94 16.68 103.22 17.9533 103.22 19.42C103.22 20.5267 103.06 21.5267 102.74 22.42C102.42 23.3133 101.96 24.08 101.36 24.72C100.773 25.36 100.06 25.8533 99.2201 26.2C98.3934 26.5333 97.4667 26.7 96.4401 26.7ZM96.4401 24.5C97.3067 24.5 98.0401 24.3 98.6401 23.9C99.2534 23.5 99.7201 22.92 100.04 22.16C100.373 21.4 100.54 20.4933 100.54 19.44C100.54 17.84 100.18 16.6 99.4601 15.72C98.7534 14.84 97.7467 14.4 96.4401 14.4C95.5867 14.4 94.8534 14.6 94.2401 15C93.6267 15.3867 93.1534 15.96 92.8201 16.72C92.5001 17.4667 92.3401 18.3733 92.3401 19.44C92.3401 21.0267 92.7001 22.2667 93.4201 23.16C94.1401 24.0533 95.1467 24.5 96.4401 24.5ZM106.283 22.44C106.03 22.44 105.83 22.36 105.683 22.2C105.55 22.04 105.47 21.8133 105.443 21.52L104.843 13.88C104.803 13.3867 104.91 12.9933 105.163 12.7C105.417 12.3933 105.79 12.24 106.283 12.24C106.763 12.24 107.123 12.3933 107.363 12.7C107.617 12.9933 107.723 13.3867 107.683 13.88L107.083 21.52C107.07 21.8133 106.99 22.04 106.843 22.2C106.71 22.36 106.523 22.44 106.283 22.44ZM106.283 26.6C105.83 26.6 105.463 26.46 105.183 26.18C104.917 25.9 104.783 25.54 104.783 25.1C104.783 24.6733 104.917 24.3267 105.183 24.06C105.463 23.78 105.83 23.64 106.283 23.64C106.75 23.64 107.11 23.78 107.363 24.06C107.63 24.3267 107.763 24.6733 107.763 25.1C107.763 25.54 107.63 25.9 107.363 26.18C107.11 26.46 106.75 26.6 106.283 26.6ZM119.574 26.7C118.987 26.7 118.4 26.6533 117.814 26.56C117.227 26.48 116.674 26.3533 116.154 26.18C115.634 25.9933 115.167 25.7667 114.754 25.5C114.514 25.34 114.347 25.1467 114.254 24.92C114.16 24.6933 114.127 24.4733 114.154 24.26C114.194 24.0333 114.28 23.84 114.414 23.68C114.56 23.5067 114.74 23.4 114.954 23.36C115.167 23.32 115.4 23.38 115.654 23.54C116.24 23.8867 116.86 24.14 117.514 24.3C118.167 24.46 118.854 24.54 119.574 24.54C120.627 24.54 121.394 24.3667 121.874 24.02C122.354 23.66 122.594 23.2 122.594 22.64C122.594 22.1733 122.42 21.8067 122.074 21.54C121.74 21.2733 121.16 21.0533 120.334 20.88L118.134 20.42C116.867 20.1533 115.92 19.7067 115.294 19.08C114.68 18.44 114.374 17.6 114.374 16.56C114.374 15.9067 114.507 15.3133 114.774 14.78C115.04 14.2467 115.414 13.7867 115.894 13.4C116.387 13.0133 116.967 12.72 117.634 12.52C118.314 12.3067 119.06 12.2 119.874 12.2C120.674 12.2 121.434 12.3 122.154 12.5C122.874 12.7 123.52 12.9933 124.094 13.38C124.307 13.5267 124.447 13.7067 124.514 13.92C124.594 14.1333 124.614 14.3467 124.574 14.56C124.534 14.76 124.44 14.9333 124.294 15.08C124.147 15.2267 123.96 15.3133 123.734 15.34C123.52 15.3667 123.274 15.3 122.994 15.14C122.5 14.86 122 14.66 121.494 14.54C120.987 14.42 120.44 14.36 119.854 14.36C119.24 14.36 118.714 14.4467 118.274 14.62C117.834 14.7933 117.494 15.04 117.254 15.36C117.027 15.6667 116.914 16.0333 116.914 16.46C116.914 16.94 117.074 17.3267 117.394 17.62C117.714 17.9 118.26 18.12 119.034 18.28L121.214 18.74C122.534 19.02 123.514 19.46 124.154 20.06C124.807 20.66 125.134 21.46 125.134 22.46C125.134 23.1 125 23.68 124.734 24.2C124.48 24.72 124.107 25.1667 123.614 25.54C123.134 25.9133 122.554 26.2 121.874 26.4C121.194 26.6 120.427 26.7 119.574 26.7ZM127.831 26.66C127.431 26.66 127.124 26.5533 126.911 26.34C126.698 26.1133 126.591 25.7933 126.591 25.38V13.5C126.591 13.0867 126.698 12.7733 126.911 12.56C127.124 12.3467 127.431 12.24 127.831 12.24C128.231 12.24 128.538 12.3467 128.751 12.56C128.978 12.7733 129.091 13.0867 129.091 13.5V18.68H128.811C129.104 17.9733 129.558 17.44 130.171 17.08C130.798 16.7067 131.504 16.52 132.291 16.52C133.078 16.52 133.724 16.6667 134.231 16.96C134.738 17.2533 135.118 17.7 135.371 18.3C135.624 18.8867 135.751 19.6333 135.751 20.54V25.38C135.751 25.7933 135.644 26.1133 135.431 26.34C135.218 26.5533 134.911 26.66 134.511 26.66C134.111 26.66 133.798 26.5533 133.571 26.34C133.358 26.1133 133.251 25.7933 133.251 25.38V20.66C133.251 19.9 133.104 19.3467 132.811 19C132.531 18.6533 132.091 18.48 131.491 18.48C130.758 18.48 130.171 18.7133 129.731 19.18C129.304 19.6333 129.091 20.24 129.091 21V25.38C129.091 26.2333 128.671 26.66 127.831 26.66ZM142.25 26.7C141.237 26.7 140.357 26.4933 139.61 26.08C138.864 25.6667 138.284 25.08 137.87 24.32C137.457 23.5467 137.25 22.64 137.25 21.6C137.25 20.8133 137.364 20.1133 137.59 19.5C137.83 18.8733 138.17 18.34 138.61 17.9C139.05 17.4467 139.577 17.1067 140.19 16.88C140.804 16.64 141.49 16.52 142.25 16.52C143.264 16.52 144.144 16.7267 144.89 17.14C145.637 17.5533 146.217 18.14 146.63 18.9C147.044 19.66 147.25 20.56 147.25 21.6C147.25 22.3867 147.13 23.0933 146.89 23.72C146.664 24.3467 146.33 24.8867 145.89 25.34C145.45 25.78 144.924 26.12 144.31 26.36C143.697 26.5867 143.01 26.7 142.25 26.7ZM142.25 24.8C142.744 24.8 143.177 24.68 143.55 24.44C143.924 24.2 144.21 23.8467 144.41 23.38C144.624 22.9 144.73 22.3067 144.73 21.6C144.73 20.5333 144.504 19.74 144.05 19.22C143.597 18.6867 142.997 18.42 142.25 18.42C141.757 18.42 141.324 18.54 140.95 18.78C140.577 19.0067 140.284 19.36 140.07 19.84C139.87 20.3067 139.77 20.8933 139.77 21.6C139.77 22.6533 139.997 23.4533 140.45 24C140.904 24.5333 141.504 24.8 142.25 24.8ZM150.054 30.26C149.654 30.26 149.347 30.1533 149.134 29.94C148.92 29.7267 148.814 29.4133 148.814 29V17.82C148.814 17.4067 148.92 17.0933 149.134 16.88C149.347 16.6667 149.647 16.56 150.034 16.56C150.434 16.56 150.74 16.6667 150.954 16.88C151.167 17.0933 151.274 17.4067 151.274 17.82V19.38L151.054 18.78C151.254 18.1 151.66 17.5533 152.274 17.14C152.9 16.7267 153.627 16.52 154.454 16.52C155.307 16.52 156.054 16.7267 156.694 17.14C157.347 17.5533 157.854 18.14 158.214 18.9C158.574 19.6467 158.754 20.5467 158.754 21.6C158.754 22.64 158.574 23.5467 158.214 24.32C157.854 25.08 157.354 25.6667 156.714 26.08C156.074 26.4933 155.32 26.7 154.454 26.7C153.64 26.7 152.927 26.5 152.314 26.1C151.7 25.6867 151.287 25.1533 151.074 24.5H151.314V29C151.314 29.4133 151.2 29.7267 150.974 29.94C150.76 30.1533 150.454 30.26 150.054 30.26ZM153.754 24.8C154.247 24.8 154.68 24.68 155.054 24.44C155.427 24.2 155.714 23.8467 155.914 23.38C156.127 22.9 156.234 22.3067 156.234 21.6C156.234 20.5333 156.007 19.74 155.554 19.22C155.1 18.6867 154.5 18.42 153.754 18.42C153.26 18.42 152.827 18.54 152.454 18.78C152.08 19.0067 151.787 19.36 151.574 19.84C151.374 20.3067 151.274 20.8933 151.274 21.6C151.274 22.6533 151.5 23.4533 151.954 24C152.407 24.5333 153.007 24.8 153.754 24.8Z" fill="black"/>
</g>
<defs>
<clipPath id="clip0_25_214">
<rect width="160" height="40" fill="white"/>
</clipPath>
<clipPath id="clip1_25_214">
<rect width="42" height="40" rx="20" fill="white"/>
</clipPath>
<clipPath id="clip2_25_214">
<rect width="119.167" height="40" fill="white"/>
</clipPath>
</defs>
</svg>
